:FULLY-SPECIFIED
:FORCE-ALL-JOINTS-BE-3DOF
:DEGREES
2141
root -2.59021 15.1975 -0.295392 904.228 7.85526 186.097
lfemur -51.8848 13.604 -27.8078
ltibia 47.9624 0 0
lfoot 3.34047 20.9585 0
ltoes 7.7703 0 0
rfemur -16.4349 -0.931153 21.6796
rtibia 84.1534 0 0
rfoot -10.8062 -1.70078 0
rtoes -21.6537 0 0
lowerback 8.62722 0.484604 -0.15712
upperback -1.72385 0.963378 3.45899
thorax -6.72647 0.600947 3.58493
lowerneck -4.98527 0.267895 -4.47374
upperneck 4.84759 0.538061 2.76217
head 2.3938 0.270931 1.68703
lclavicle 1.81925e-14 -1.51896e-14 0
lhumerus 52.5394 3.3611 107.764
lradius 13.5592 0 0
lwrist -45.8932 0 0
lhand -23.593 319.252 0
lfingers 7.12502 0 0
lthumb -8.1367 -283.224 0
rclavicle -1.86147e-14 5.65114e-15 0
rhumerus -53.6031 20.3628 -97.6515
rradius 109.096 0 0
rwrist -81.8208 0 0
rhand -14.9534 -393.163 0
rfingers 7.12502 0 0
rthumb 11.8214 297.6 0
2142
root -2.57552 15.1969 -0.514601 903.462 6.84501 185.14
lfemur -51.3136 13.5812 -28.2276
ltibia 48.8143 0 0
lfoot 2.48251 21.1791 0
ltoes 6.4615 0 0
rfemur -16.8979 -1.04065 21.1013
rtibia 85.3955 0 0
rfoot -9.76997 -1.2901 0
rtoes -20.8407 0 0
lowerback 9.68038 0.158282 -1.03962
upperback -1.44707 0.403408 3.31028
thorax -7.00309 0.350963 4.01636
lowerneck -5.07839 0.378048 -4.43408
upperneck 4.69031 0.703183 2.45032
head 2.35071 0.345446 1.58229
lclavicle 1.64724e-14 -1.42466e-14 0
lhumerus 52.1694 2.39621 106.813
lradius 14.7343 0 0
lwrist -44.3396 0 0
lhand -24.8322 332.902 0
lfingers 7.12502 0 0
lthumb -8.0048 -283.387 0
rclavicle -1.82822e-14 7.22367e-15 0
rhumerus -53.2676 20.165 -97.2416
rradius 109.753 0 0
rwrist -81.1594 0 0
rhand -15.3269 -393.139 0
rfingers 7.12502 0 0
rthumb 12.685 297.892 0
2143
root -2.5618 15.2055 -0.734941 902.871 6.12727 184.092
lfemur -50.7424 13.5585 -28.6475
ltibia 49.6662 0 0
lfoot 1.62454 21.3997 0
ltoes 5.1527 0 0
rfemur -17.361 -1.15015 20.523
rtibia 86.6376 0 0
rfoot -8.73372 -0.879417 0
rtoes -20.0278 0 0
lowerback 10.4867 -0.0204328 -1.93176
upperback -1.20673 0.0137355 3.05488
thorax -7.17732 0.182604 4.32251
lowerneck -5.29888 0.402811 -4.38228
upperneck 4.77636 0.75439 2.22752
head 2.41728 0.365493 1.50544
lclavicle 1.47523e-14 -1.33036e-14 0
lhumerus 51.7994 1.43132 105.862
lradius 15.9093 0 0
lwrist -42.7859 0 0
lhand -26.0714 346.552 0
lfingers 7.12502 0 0
lthumb -7.8729 -283.55 0
rclavicle -1.79496e-14 8.7962e-15 0
rhumerus -52.9322 19.9673 -96.8318
rradius 110.41 0 0
rwrist -80.498 0 0
rhand -14.2515 -392.938 0
rfingers 7.12502 0 0
rthumb 13.5485 298.185 0
2144
root -2.54845 15.2214 -0.950157 902.199 5.44656 182.846
lfemur -50.1712 13.5357 -29.0673
ltibia 50.518 0 0
lfoot 0.766579 21.6203 0
ltoes 3.8439 0 0
rfemur -17.824 -1.25966 19.9446
rtibia 87.8798 0 0
rfoot -7.69746 -0.468734 0
rtoes -19.2148 0 0
lowerback 11.4115 -0.173002 -2.99469
upperback -0.942153 -0.386769 2.69827
thorax -7.38235 0.0158423 4.62873
lowerneck -5.57479 0.405493 -4.24975
upperneck 4.90092 0.770187 2.03858
head 2.5086 0.369952 1.42522
lclavicle 1.30322e-14 -1.23607e-14 0
lhumerus 51.4294 0.466427 104.912
lradius 17.0843 0 0
lwrist -41.2323 0 0
lhand -27.3106 360.202 0
lfingers 7.12502 0 0
lthumb -7.741 -283.714 0
rclavicle -1.7617e-14 1.03687e-14 0
rhumerus -52.5967 19.7695 -96.422
rradius 111.066 0 0
rwrist -79.8366 0 0
rhand -13.1761 -392.738 0
rfingers 7.12502 0 0
rthumb 14.4121 298.477 0
2145
root -2.53406 15.2447 -1.16728 901.622 5.15312 181.468
lfemur -49.6 13.513 -29.4872
ltibia 51.3699 0 0
lfoot -0.0913854 21.8409 0
ltoes 2.5351 0 0
rfemur -18.2871 -1.36916 19.3663
rtibia 89.1219 0 0
rfoot -6.6612 -0.0580524 0
rtoes -18.4018 0 0
lowerback 12.1855 -0.163685 -4.23482
upperback -0.698813 -0.613041 2.27675
thorax -7.53285 -0.0580448 4.93846
lowerneck -5.70761 0.387382 -4.14144
upperneck 4.89197 0.747213 1.95215
head 2.53061 0.35805 1.37822
lclavicle 1.13121e-14 -1.14177e-14 0
lhumerus 51.0594 -0.498464 103.961
lradius 18.2594 0 0
lwrist -39.6787 0 0
lhand -28.5497 373.852 0
lfingers 7.12502 0 0
lthumb -7.6091 -283.877 0
rclavicle -1.72845e-14 1.19413e-14 0
rhumerus -52.2612 19.5717 -96.0122
rradius 111.723 0 0
rwrist -79.1752 0 0
rhand -12.1007 -392.537 0
rfingers 7.12502 0 0
rthumb 15.2756 298.77 0
2146
root -2.51848 15.2728 -1.38476 901.273 5.0669 180.231
lfemur -49.0288 13.4902 -29.907
ltibia 52.2218 0 0
lfoot -0.949349 22.0615 0
ltoes 1.2263 0 0
rfemur -18.7501 -1.47866 18.788
rtibia 90.3641 0 0
rfoot -5.62495 0.35263 0
rtoes -17.5888 0 0
lowerback 12.7101 -0.0840755 -5.37104
upperback -0.533446 -0.730194 1.87668
thorax -7.63357 -0.0793267 5.18848
lowerneck -5.73517 0.372407 -4.03184
upperneck 4.84086 0.717201 1.97288
head 2.51941 0.345972 1.36411
lclavicle 9.59199e-15 -1.04747e-14 0
lhumerus 50.6893 -1.46336 103.01
lradius 19.4344 0 0
lwrist -38.1251 0 0
lhand -29.7889 387.502 0
lfingers 7.12502 0 0
lthumb -7.4772 -284.041 0
rclavicle -1.69519e-14 1.35138e-14 0
rhumerus -51.9258 19.374 -95.6024
rradius 112.38 0 0
rwrist -78.5138 0 0
rhand -11.0253 -392.337 0
rfingers 7.12502 0 0
rthumb 16.1391 299.063 0
2147
root -2.50787 15.3031 -1.60675 901.05 4.97905 179.234
lfemur -48.4576 13.4675 -30.3269
ltibia 53.0737 0 0
lfoot -1.80731 22.2821 0
ltoes -0.0825 0 0
rfemur -19.2132 -1.58816 18.2097
rtibia 91.6062 0 0
rfoot -4.58869 0.763312 0
rtoes -16.7759 0 0
lowerback 12.9915 -0.0204804 -6.21636
upperback -0.386847 -0.808454 1.55518
thorax -7.6205 -0.0929503 5.34329
lowerneck -5.79981 0.323432 -3.96344
upperneck 4.90185 0.647767 1.98464
head 2.55406 0.312815 1.35453
lclavicle 7.87188e-15 -9.53171e-15 0
lhumerus 50.3193 -2.42825 102.059
lradius 20.6094 0 0
lwrist -36.5715 0 0
lhand -31.0281 401.152 0
lfingers 7.12502 0 0
lthumb -7.3453 -284.204 0
rclavicle -1.66193e-14 1.50863e-14 0
rhumerus -51.5903 19.1762 -95.1925
rradius 113.037 0 0
rwrist -77.8524 0 0
rhand -9.94996 -392.136 0
rfingers 7.12502 0 0
rthumb 17.0027 299.355 0
2148
root -2.49826 15.3313 -1.83111 901.041 4.88675 178.698
lfemur -47.1091 13.1654 -29.9783
ltibia 53.9256 0 0
lfoot -2.66528 22.5027 0
ltoes -1.3913 0 0
rfemur -19.6762 -1.69766 17.6313
rtibia 92.8484 0 0
rfoot -3.55244 1.17399 0
rtoes -15.9629 0 0
lowerback 13.0368 -0.00295482 -6.6145
upperback -0.262434 -0.855016 1.36457
thorax -7.50332 -0.109654 5.37214
lowerneck -5.88459 0.292831 -3.87495
upperneck 4.93366 0.601561 1.99611
head 2.58185 0.291783 1.34201
lclavicle 6.15177e-15 -8.58873e-15 0
lhumerus 49.9493 -3.39314 101.108
lradius 21.7844 0 0
lwrist -35.0179 0 0
lhand -30.9667 401.166 0
lfingers 7.12502 0 0
lthumb -7.2134 -284.368 0
rclavicle -1.62868e-14 1.66588e-14 0
rhumerus -51.2549 18.9784 -94.7827
rradius 113.694 0 0
rwrist -77.191 0 0
rhand -8.87457 -391.936 0
rfingers 7.12502 0 0
rthumb 17.8662 299.648 0
2149
root -2.48944 15.3522 -2.05452 901.09 4.76083 178.511
lfemur -45.7607 12.8632 -29.6297
ltibia 54.7774 0 0
lfoot -3.52324 22.7233 0
ltoes -2.7001 0 0
rfemur -20.1393 -1.80716 17.053
rtibia 94.0905 0 0
rfoot -2.51618 1.58468 0
rtoes -15.1499 0 0
lowerback 13.0825 0.00218009 -6.63578
upperback -0.233963 -0.859123 1.26789
thorax -7.49881 -0.112906 5.28098
lowerneck -5.77856 0.267634 -3.94955
upperneck 4.97756 0.556741 2.21939
head 2.57938 0.27477 1.42596
lclavicle 4.43166e-15 -7.64575e-15 0
lhumerus 49.5793 -4.35803 100.157
lradius 22.9595 0 0
lwrist -33.4643 0 0
lhand -30.9054 401.18 0
lfingers 7.12502 0 0
lthumb -7.08151 -284.531 0
rclavicle -1.59542e-14 1.82314e-14 0
rhumerus -50.9194 18.7806 -94.3729
rradius 114.351 0 0
rwrist -76.5296 0 0
rhand -7.79918 -391.735 0
rfingers 7.12502 0 0
rthumb 18.7298 299.94 0
2150
root -2.47858 15.3741 -2.28198 901.187 4.58947 178.323
lfemur -44.4122 12.5611 -29.2811
ltibia 55.6293 0 0
lfoot -4.38121 22.9438 0
ltoes -4.0089 0 0
rfemur -21.3417 -1.95115 16.7513
rtibia 92.2948 0 0
rfoot -1.47992 1.99536 0
rtoes -14.3369 0 0
lowerback 12.9764 -0.000602172 -6.70292
upperback -0.181777 -0.867822 1.19285
thorax -7.38131 -0.121519 5.23639
lowerneck -5.80621 0.185454 -3.94372
upperneck 5.0931 0.442389 2.30462
head 2.62772 0.22044 1.45001
lclavicle 2.71155e-15 -6.70276e-15 0
lhumerus 49.2093 -5.32292 99.2063
lradius 24.1345 0 0
lwrist -31.9107 0 0
lhand -30.844 401.194 0
lfingers 7.12502 0 0
lthumb -6.94961 -284.695 0
rclavicle -1.56217e-14 1.98039e-14 0
rhumerus -50.584 18.5829 -93.9631
rradius 115.008 0 0
rwrist -75.8682 0 0
rhand -6.72379 -391.535 0
rfingers 7.12502 0 0
rthumb 19.5933 300.233 0
2151
root -2.46651 15.3934 -2.51026 901.214 4.3207 178.161
lfemur -43.0638 12.259 -28.9325
ltibia 56.4812 0 0
lfoot -5.23917 23.1644 0
ltoes -5.3177 0 0
rfemur -22.5441 -2.09514 16.4497
rtibia 90.4991 0 0
rfoot -0.443667 2.40604 0
rtoes -13.524 0 0
lowerback 12.9335 -0.0244142 -6.79044
upperback -0.144424 -0.909896 1.1494
thorax -7.31028 -0.142719 5.24555
lowerneck -5.80344 0.0636928 -3.8764
upperneck 5.25257 0.276967 2.26718
head 2.68619 0.137967 1.42096
lclavicle 9.9144e-16 -5.75978e-15 0
lhumerus 48.8393 -6.28781 98.2554
lradius 25.3095 0 0
lwrist -30.3571 0 0
lhand -30.7827 401.208 0
lfingers 7.12502 0 0
lthumb -6.81771 -284.858 0
rclavicle -1.52891e-14 2.13764e-14 0
rhumerus -50.2485 18.3851 -93.5533
rradius 115.665 0 0
rwrist -75.2068 0 0
rhand -5.6484 -391.334 0
rfingers 7.12502 0 0
rthumb 20.4568 300.526 0
2152
root -2.45077 15.4107 -2.7393 901.118 3.90614 177.889
lfemur -41.7153 11.9568 -28.5839
ltibia 56.4646 0 0
lfoot -6.09713 23.385 0
ltoes -6.6265 0 0
rfemur -23.7465 -2.23913 16.148
rtibia 88.7033 0 0
rfoot 0.570465 2.36313 0
rtoes -12.711 0 0
lowerback 12.9767 -0.0493287 -7.03412
upperback -0.0940747 -0.980868 1.10654
thorax -7.26768 -0.17062 5.35153
lowerneck -5.86687 -0.0226879 -4.08577
upperneck 5.52705 0.166454 2.51715
head 2.79758 0.086743 1.5398
lclavicle -7.2867e-16 -4.8168e-15 0
lhumerus 48.4693 -7.2527 97.3045
lradius 26.4846 0 0
lwrist -28.8035 0 0
lhand -30.7213 401.222 0
lfingers 7.12502 0 0
lthumb -6.68581 -285.022 0
rclavicle -1.49565e-14 2.2949e-14 0
rhumerus -49.9131 18.1873 -93.1435
rradius 116.322 0 0
rwrist -74.5454 0 0
rhand -4.57301 -391.133 0
rfingers 7.12502 0 0
rthumb 21.3204 300.818 0
2153
root -2.42944 15.4184 -2.9657 900.977 3.3358 177.642
lfemur -40.3669 11.6547 -28.2353
ltibia 56.448 0 0
lfoot -6.9551 23.6056 0
ltoes -7.9353 0 0
rfemur -24.9489 -2.38312 15.8463
rtibia 86.9076 0 0
rfoot 1.5846 2.32022 0
rtoes -11.898 0 0
lowerback 13.1235 -0.106015 -7.32097
upperback -0.0538178 -1.10677 1.08551
thorax -7.28481 -0.220143 5.51876
lowerneck -5.95871 -0.161817 -4.08506
upperneck 5.81126 -0.0138208 2.49964
head 2.9181 -0.00345687 1.53036
lclavicle -2.44878e-15 -3.87381e-15 0
lhumerus 48.0993 -8.21759 96.3536
lradius 27.6596 0 0
lwrist -27.2499 0 0
lhand -30.66 401.236 0
lfingers 7.12502 0 0
lthumb -6.55391 -285.185 0
rclavicle -1.4624e-14 2.45215e-14 0
rhumerus -49.5776 17.9895 -92.7336
rradius 116.979 0 0
rwrist -73.884 0 0
rhand -3.49762 -390.933 0
rfingers 7.12502 0 0
rthumb 22.1839 301.111 0
